<svg width="100" height="100" viewBox="0 0 100 100" fill="none" xmlns="http://www.w3.org/2000/svg">
<path d="M0 12C0 5.37258 5.37258 0 12 0H88C94.6274 0 100 5.37258 100 12V88C100 94.6274 94.6274 100 88 100H12C5.37258 100 0 94.6274 0 88V12Z" fill="#0F172A"/>
<path d="M59.0653 43.2585C58.7576 42.2614 58.3329 41.3688 57.7912 40.581C57.2618 39.7808 56.6217 39.0975 55.8707 38.5312C55.1321 37.965 54.2827 37.5402 53.3224 37.2571C52.3622 36.9616 51.3158 36.8139 50.1832 36.8139C48.152 36.8139 46.3423 37.3248 44.7543 38.3466C43.1662 39.3684 41.9167 40.8703 41.0057 42.8523C40.107 44.822 39.6577 47.2225 39.6577 50.054C39.6577 52.91 40.107 55.3291 41.0057 57.3111C41.9044 59.2931 43.1539 60.8011 44.7543 61.8352C46.3546 62.857 48.2135 63.3679 50.331 63.3679C52.2514 63.3679 53.9134 62.9986 55.3168 62.2599C56.7325 61.5213 57.822 60.4749 58.5852 59.1207C59.3485 57.7543 59.7301 56.1539 59.7301 54.3196L61.2812 54.5597H51.0142V49.2045H66.3594V53.7472C66.3594 56.9848 65.67 59.7855 64.2912 62.1491C62.9124 64.5128 61.0166 66.3348 58.6037 67.6151C56.1908 68.8831 53.4209 69.517 50.294 69.517C46.8101 69.517 43.7509 68.7353 41.1165 67.1719C38.4943 65.5961 36.4446 63.3617 34.9673 60.4688C33.5024 57.5634 32.7699 54.1165 32.7699 50.1278C32.7699 47.0748 33.2008 44.348 34.0625 41.9474C34.9366 39.5469 36.1553 37.5095 37.7188 35.8352C39.2822 34.1487 41.1165 32.8684 43.2216 31.9943C45.3267 31.108 47.6165 30.6648 50.0909 30.6648C52.1837 30.6648 54.1349 30.9725 55.9446 31.5881C57.7543 32.1913 59.3608 33.053 60.7642 34.1733C62.1799 35.2936 63.3433 36.6231 64.2543 38.1619C65.1653 39.7008 65.7623 41.3996 66.0455 43.2585H59.0653Z" fill="#5BE4CE"/>
</svg>
